<svg width="24" height="20" viewBox="0 0 24 20" fill="none" xmlns="http://www.w3.org/2000/svg">
<path d="M6.6 10C8.25413 10 9.6 8.66814 9.6 7.03125C9.6 5.39436 8.25413 4.0625 6.6 4.0625C4.94588 4.0625 3.6 5.39436 3.6 7.03125C3.6 8.66814 4.94588 10 6.6 10ZM19.8 5.25H11.4C11.0685 5.25 10.8 5.5157 10.8 5.84375V11.1875H2.4V3.46875C2.4 3.1407 2.1315 2.875 1.8 2.875H0.6C0.2685 2.875 0 3.1407 0 3.46875V16.5312C0 16.8593 0.2685 17.125 0.6 17.125H1.8C2.1315 17.125 2.4 16.8593 2.4 16.5312V14.75H21.6V16.5312C21.6 16.8593 21.8685 17.125 22.2 17.125H23.4C23.7315 17.125 24 16.8593 24 16.5312V9.40625C24 7.11066 22.1198 5.25 19.8 5.25Z" fill="#1C64F2"/>
</svg>
