<svg width="24" height="24" viewBox="0 0 24 24" fill="none" xmlns="http://www.w3.org/2000/svg">
<path d="M7.1999 6.12023V7.12023C7.55557 7.12023 7.88447 6.93132 8.06368 6.62411L7.1999 6.12023ZM8.8799 3.24023V2.24023C8.52423 2.24023 8.19533 2.42915 8.01612 2.73636L8.8799 3.24023ZM15.1199 3.24023L15.9837 2.73636C15.8045 2.42915 15.4756 2.24023 15.1199 2.24023V3.24023ZM16.7999 6.12023L15.9361 6.62411C16.1153 6.93132 16.4442 7.12023 16.7999 7.12023V6.12023ZM2.3999 18.3602H3.3999V8.52023H2.3999H1.3999V18.3602H2.3999ZM4.7999 6.12023V7.12023H7.1999V6.12023V5.12023H4.7999V6.12023ZM7.1999 6.12023L8.06368 6.62411L9.74368 3.74411L8.8799 3.24023L8.01612 2.73636L6.33612 5.61636L7.1999 6.12023ZM8.8799 3.24023V4.24023H15.1199V3.24023V2.24023H8.8799V3.24023ZM15.1199 3.24023L14.2561 3.74411L15.9361 6.62411L16.7999 6.12023L17.6637 5.61636L15.9837 2.73636L15.1199 3.24023ZM16.7999 6.12023V7.12023H19.1999V6.12023V5.12023H16.7999V6.12023ZM21.5999 8.52023H20.5999V18.3602H21.5999H22.5999V8.52023H21.5999ZM21.5999 18.3602H20.5999C20.5999 19.1334 19.9731 19.7602 19.1999 19.7602V20.7602V21.7602C21.0777 21.7602 22.5999 20.238 22.5999 18.3602H21.5999ZM19.1999 6.12023V7.12023C19.9731 7.12023 20.5999 7.74704 20.5999 8.52023H21.5999H22.5999C22.5999 6.64247 21.0777 5.12023 19.1999 5.12023V6.12023ZM2.3999 8.52023H3.3999C3.3999 7.74703 4.0267 7.12023 4.7999 7.12023V6.12023V5.12023C2.92213 5.12023 1.3999 6.64246 1.3999 8.52023H2.3999ZM4.7999 20.7602V19.7602C4.0267 19.7602 3.3999 19.1334 3.3999 18.3602H2.3999H1.3999C1.3999 20.238 2.92213 21.7602 4.7999 21.7602V20.7602ZM15.5999 12.8402H14.5999C14.5999 14.2762 13.4358 15.4402 11.9999 15.4402V16.4402V17.4402C14.5404 17.4402 16.5999 15.3807 16.5999 12.8402H15.5999ZM11.9999 16.4402V15.4402C10.564 15.4402 9.3999 14.2762 9.3999 12.8402H8.3999H7.3999C7.3999 15.3807 9.45939 17.4402 11.9999 17.4402V16.4402ZM8.3999 12.8402H9.3999C9.3999 11.4043 10.564 10.2402 11.9999 10.2402V9.24023V8.24023C9.45939 8.24023 7.3999 10.2997 7.3999 12.8402H8.3999ZM11.9999 9.24023V10.2402C13.4358 10.2402 14.5999 11.4043 14.5999 12.8402H15.5999H16.5999C16.5999 10.2997 14.5404 8.24023 11.9999 8.24023V9.24023ZM19.1999 20.7602V19.7602H4.7999V20.7602V21.7602H19.1999V20.7602Z" fill="#1E429F"/>
</svg>
