<svg width="23" height="20" viewBox="0 0 23 20" fill="none" xmlns="http://www.w3.org/2000/svg">
<path d="M6.6999 4.11999V5.11999C7.05557 5.11999 7.38447 4.93108 7.56368 4.62386L6.6999 4.11999ZM8.3799 1.23999V0.23999C8.02423 0.23999 7.69533 0.428901 7.51612 0.736119L8.3799 1.23999ZM14.6199 1.23999L15.4837 0.736119C15.3045 0.428902 14.9756 0.23999 14.6199 0.23999V1.23999ZM16.2999 4.11999L15.4361 4.62386C15.6153 4.93108 15.9442 5.11999 16.2999 5.11999V4.11999ZM1.8999 16.36H2.8999V6.51999H1.8999H0.899902V16.36H1.8999ZM4.2999 4.11999V5.11999H6.6999V4.11999V3.11999H4.2999V4.11999ZM6.6999 4.11999L7.56368 4.62386L9.24368 1.74386L8.3799 1.23999L7.51612 0.736119L5.83612 3.61612L6.6999 4.11999ZM8.3799 1.23999V2.23999H14.6199V1.23999V0.23999H8.3799V1.23999ZM14.6199 1.23999L13.7561 1.74386L15.4361 4.62386L16.2999 4.11999L17.1637 3.61612L15.4837 0.736119L14.6199 1.23999ZM16.2999 4.11999V5.11999H18.6999V4.11999V3.11999H16.2999V4.11999ZM21.0999 6.51999H20.0999V16.36H21.0999H22.0999V6.51999H21.0999ZM21.0999 16.36H20.0999C20.0999 17.1332 19.4731 17.76 18.6999 17.76V18.76V19.76C20.5777 19.76 22.0999 18.2378 22.0999 16.36H21.0999ZM18.6999 4.11999V5.11999C19.4731 5.11999 20.0999 5.74679 20.0999 6.51999H21.0999H22.0999C22.0999 4.64222 20.5777 3.11999 18.6999 3.11999V4.11999ZM1.8999 6.51999H2.8999C2.8999 5.74679 3.5267 5.11999 4.2999 5.11999V4.11999V3.11999C2.42213 3.11999 0.899902 4.64222 0.899902 6.51999H1.8999ZM4.2999 18.76V17.76C3.5267 17.76 2.8999 17.1332 2.8999 16.36H1.8999H0.899902C0.899902 18.2378 2.42213 19.76 4.2999 19.76V18.76ZM15.0999 10.84H14.0999C14.0999 12.2759 12.9358 13.44 11.4999 13.44V14.44V15.44C14.0404 15.44 16.0999 13.3805 16.0999 10.84H15.0999ZM11.4999 14.44V13.44C10.064 13.44 8.8999 12.2759 8.8999 10.84H7.8999H6.8999C6.8999 13.3805 8.95939 15.44 11.4999 15.44V14.44ZM7.8999 10.84H8.8999C8.8999 9.40405 10.064 8.23999 11.4999 8.23999V7.23999V6.23999C8.95939 6.23999 6.8999 8.29948 6.8999 10.84H7.8999ZM11.4999 7.23999V8.23999C12.9358 8.23999 14.0999 9.40405 14.0999 10.84H15.0999H16.0999C16.0999 8.29948 14.0404 6.23999 11.4999 6.23999V7.23999ZM18.6999 18.76V17.76H4.2999V18.76V19.76H18.6999V18.76Z" fill="#1E429F"/>
</svg>
