<svg width="21" height="22" viewBox="0 0 21 22" fill="none" xmlns="http://www.w3.org/2000/svg">
<path d="M14.25 4.25C15.9069 4.25 17.25 5.59315 17.25 7.25M20.25 7.25C20.25 10.5637 17.5637 13.25 14.25 13.25C13.8993 13.25 13.5555 13.2199 13.2213 13.1622C12.6583 13.0649 12.062 13.188 11.658 13.592L9 16.25H6.75V18.5H4.5V20.75H0.75V17.932C0.75 17.3352 0.987053 16.7629 1.40901 16.341L7.908 9.842C8.31202 9.43798 8.43512 8.84172 8.33785 8.2787C8.2801 7.94446 8.25 7.60074 8.25 7.25C8.25 3.93629 10.9363 1.25 14.25 1.25C17.5637 1.25 20.25 3.93629 20.25 7.25Z" stroke="#AFAFAF" stroke-width="1.5" stroke-linecap="round" stroke-linejoin="round"/>
</svg>
