<svg width="24" height="16" viewBox="0 0 24 16" fill="none" xmlns="http://www.w3.org/2000/svg">
<path d="M16.7217 0.5C20.7414 0.500207 24 3.85799 24 8C24 12.142 20.7414 15.4998 16.7217 15.5C14.9193 15.5 13.2712 14.8231 12 13.7051C10.7288 14.8231 9.08068 15.5 7.27832 15.5C3.25858 15.4998 0 12.142 0 8C0 3.85799 3.25858 0.500205 7.27832 0.5C9.08045 0.5 10.7288 1.17614 12 2.29395C13.2712 1.17614 14.9196 0.5 16.7217 0.5Z" fill="#ED0006"/>
<path d="M16.7217 0.5C20.7414 0.500208 24 3.85799 24 8C24 12.142 20.7414 15.4998 16.7217 15.5C14.9193 15.5 13.2712 14.8231 12 13.7051C13.5641 12.3295 14.5576 10.285 14.5576 8C14.5576 5.71479 13.5644 3.66958 12 2.29395C13.2712 1.17614 14.9196 0.5 16.7217 0.5Z" fill="#F9A000"/>
<path d="M11.9995 2.29346C13.5643 3.66909 14.5571 5.71492 14.5571 8.00049C14.5571 10.2856 13.5638 12.33 11.9995 13.7056C10.4357 12.33 9.44295 10.2852 9.44287 8.00049C9.44287 5.7153 10.4352 3.66909 11.9995 2.29346Z" fill="#FF5E00"/>
</svg>
