<svg width="15" height="14" viewBox="0 0 15 14" fill="none" xmlns="http://www.w3.org/2000/svg">
<path d="M14.9263 7.41699C14.9199 6.67432 13.9106 6.13477 12.6982 6.13477H10.1401C9.78467 6.13477 9.65137 6.07764 9.44189 5.83643L5.17627 1.18359C5.04297 1.03125 4.87793 0.955078 4.6875 0.955078H3.95117C3.78613 0.955078 3.69092 1.10107 3.77344 1.27881L5.96973 6.13477L2.74512 6.50293L1.59619 4.39551C1.51367 4.23682 1.37402 4.16699 1.16455 4.16699H0.891602C0.726562 4.16699 0.618652 4.2749 0.618652 4.43994V10.394C0.618652 10.5591 0.726562 10.6606 0.891602 10.6606H1.16455C1.37402 10.6606 1.51367 10.5908 1.59619 10.4385L2.74512 8.33105L5.96973 8.69922L3.77344 13.5552C3.69092 13.7266 3.78613 13.8789 3.95117 13.8789H4.6875C4.87793 13.8789 5.04297 13.7964 5.17627 13.6504L9.44189 8.99121C9.65137 8.75635 9.78467 8.69922 10.1401 8.69922H12.6982C13.9106 8.69922 14.9199 8.15332 14.9263 7.41699Z" fill="#111928"/>
</svg>
