<svg width="31" height="30" viewBox="0 0 31 30" fill="none" xmlns="http://www.w3.org/2000/svg">
<path d="M10.7383 15V16H15.7383H20.7383V15C20.7383 13.3454 22.0777 12.0037 23.7315 12C23.723 11.672 23.704 11.4338 23.6614 11.2196C23.3458 9.63288 22.1054 8.39249 20.5186 8.07686C20.1322 8 19.6676 8 18.7383 8H15.7383H12.7383C11.809 8 11.3443 8 10.9579 8.07686C9.37116 8.39249 8.13077 9.63288 7.81514 11.2196C7.77254 11.4338 7.75355 11.672 7.74509 12C9.39881 12.0037 10.7383 13.3454 10.7383 15Z" fill="#1E429F"/>
<path d="M22.1827 21H9.29384C9.01678 21 8.74711 20.9683 8.48828 20.9084V22C8.48828 22.4142 8.15249 22.75 7.73828 22.75C7.32407 22.75 6.98828 22.4142 6.98828 22V20.1513C6.22336 19.4991 5.73828 18.5284 5.73828 17.4444V15C5.73828 13.8954 6.63371 13 7.73828 13C8.84285 13 9.73828 13.8954 9.73828 15V16.2C9.73828 16.6418 10.0965 17 10.5383 17H20.9383C21.3801 17 21.7383 16.6418 21.7383 16.2V15C21.7383 13.8954 22.6337 13 23.7383 13C24.8429 13 25.7383 13.8954 25.7383 15V17.4444C25.7383 18.5284 25.2532 19.4991 24.4883 20.1513V22C24.4883 22.4142 24.1525 22.75 23.7383 22.75C23.3241 22.75 22.9883 22.4142 22.9883 22V20.9084C22.7294 20.9683 22.4598 21 22.1827 21Z" fill="#1E429F"/>
</svg>
